HIERARCHY
ROOT Root
{
	OFFSET 0.00000 0.00000 0.00000
	CHANNELS 6 Xposition Yposition Zposition Zrotation Xrotation Yrotation
	JOINT Hip
	{
		OFFSET 0 0 0	
		CHANNELS 3 Zrotation Xrotation Yrotation
		JOINT Tummy
		{
			OFFSET 0 0.04 0	
			CHANNELS 3 Zrotation Xrotation Yrotation
			JOINT ChestBottom
			{
				OFFSET 0 0.194 0	
				CHANNELS 3 Zrotation Xrotation Yrotation
				JOINT ChestTop
				{
					OFFSET 0 0.166 0	
					CHANNELS 3 Zrotation Xrotation Yrotation
					JOINT LeftCollar
					{
						OFFSET 0 0.1 0	
						CHANNELS 3 Zrotation Xrotation Yrotation
						JOINT LeftUpperArm
						{
							OFFSET 0.156 -0.02 0.03	
							CHANNELS 3 Zrotation Xrotation Yrotation
							JOINT LeftForeArm
							{
								OFFSET 0.035 -0.27 -0.01	
								CHANNELS 3 Zrotation Xrotation Yrotation
								JOINT LeftHand
								{
									OFFSET 0.01 -0.27 0.01	
									CHANNELS 3 Zrotation Xrotation Yrotation
									End Site
									{
										OFFSET 0 -0.15 0
									}
								}
							}
						}
					}
					JOINT RightCollar
					{
						OFFSET 0 0.1 0	
						CHANNELS 3 Zrotation Xrotation Yrotation
						JOINT RightUpperArm
						{
							OFFSET -0.156 -0.02 0.03	
							CHANNELS 3 Zrotation Xrotation Yrotation
							JOINT RightForeArm
							{
								OFFSET -0.035 -0.27 -0.01	
								CHANNELS 3 Zrotation Xrotation Yrotation
								JOINT RightHand
								{
									OFFSET -0.01 -0.27 0.01	
									CHANNELS 3 Zrotation Xrotation Yrotation
									End Site
									{
										OFFSET 0 -0.15 0
									}
								}
							}
						}
					}
					JOINT Neck
					{
						OFFSET 0 0.1 0	
						CHANNELS 3 Zrotation Xrotation Yrotation
						JOINT Head
						{
							OFFSET 0 0.127 0.03	
							CHANNELS 3 Zrotation Xrotation Yrotation
							End Site
							{
								OFFSET 0 0.127 0.03
							}
						}
					}
				}
			}
		}
	}
	JOINT LeftHip
	{
		OFFSET 0 0 0	
		CHANNELS 3 Zrotation Xrotation Yrotation
		JOINT LeftThigh
		{
			OFFSET 0.088 -0.06 0	
			CHANNELS 3 Zrotation Xrotation Yrotation
			JOINT LeftLowerLeg
			{
				OFFSET 0 -0.39 0.02	
				CHANNELS 3 Zrotation Xrotation Yrotation
				JOINT LeftFootTop
				{
					OFFSET 0 -0.43 -0.02	
					CHANNELS 3 Zrotation Xrotation Yrotation
					JOINT LeftFootFront
					{
						OFFSET 0 -0.07 0.085	
						CHANNELS 3 Zrotation Xrotation Yrotation
						End Site
						{
							OFFSET 0 -0.005 0.09
						}
					}
				}
				JOINT LeftHeel
				{
					OFFSET 0 -0.43 -0.02	
					CHANNELS 3 Zrotation Xrotation Yrotation
					End Site
					{
						OFFSET 0 -0.075 -0.05
					}
				}
			}
		}
	}
	JOINT RightHip
	{
		OFFSET 0 0 0	
		CHANNELS 3 Zrotation Xrotation Yrotation
		JOINT RightThigh
		{
			OFFSET -0.088 -0.06 0	
			CHANNELS 3 Zrotation Xrotation Yrotation
			JOINT RightLowerLeg
			{
				OFFSET 0 -0.39 0.02	
				CHANNELS 3 Zrotation Xrotation Yrotation
				JOINT RightFootTop
				{
					OFFSET 0 -0.43 -0.02	
					CHANNELS 3 Zrotation Xrotation Yrotation
					JOINT RightFootFront
					{
						OFFSET 0 -0.07 0.085	
						CHANNELS 3 Zrotation Xrotation Yrotation
						End Site
						{
							OFFSET 0 -0.005 0.09
						}
					}
				}
				JOINT RightHeel
				{
					OFFSET 0 -0.43 -0.02	
					CHANNELS 3 Zrotation Xrotation Yrotation
					End Site
					{
						OFFSET 0 -0.075 -0.05
					}
				}
			}
		}
	}
}
MOTION
Frames: 19
Frame Time: 0.025
0 0.95703 0 -0 0 -0 -0.28269 -2.0294 -22.125 -0.79396 4.1856 -1.0975 -0.79396 4.1856 -1.0975 -0.67212 3.5149 -0.92552 -0 0 -0 42.005 -30.491 12.671 -8.8403 0.47573 -6.684 -0 0 -0 -0 0 -0 -20.135 -0.43198 -13.973 -103.33 -48.015 -80.566 -0 0 -0 6.2182 -3.9373 0.54561 6.2182 -3.9373 0.54562 -0.28269 -2.0294 -22.125 -2.0287 -8.8448 8.0301 0.55323 36.151 7.3322 -0 0 -0 -0 0 -0 -0 0 -0 -0.28269 -2.0294 -22.125 1.1957 -33.146 5.2782 -5.7646 54.495 0.22591 -0 0 -0 -0 0 -0 -0 0 -0 
0 0.95703 0 -0 0 -0 -0.19617 -1.6929 -21.881 -0.80389 4.0994 -2.615 -0.80389 4.0994 -2.615 -0.68768 3.4411 -2.1998 -0 0 -0 39.191 -31.059 10.722 -9.5357 -1.3623 -6.4441 -0 0 -0 -0 0 -0 -17.612 2.1846 -11.058 -98.208 -49.177 -75.927 -0 0 -0 6.307 -3.6157 2.5696 6.307 -3.6157 2.5696 -0.19617 -1.6929 -21.881 -1.385 -8.5884 12.043 2.1995 35.515 3.4272 -0 0 -0 -0 0 -0 -0 0 -0 -0.19617 -1.6929 -21.881 2.1396 -35.621 6.0513 -5.666 51.742 -0.82906 -0 0 -0 -0 0 -0 -0 0 -0 
0 0.95703 0 -0 0 -0 -0.43752 -1.0743 -21.716 -0.64461 4.0208 -4.2555 -0.64461 4.0208 -4.2555 -0.56145 3.3744 -3.5766 -0 0 -0 36.281 -31.849 9.2925 -9.2931 -3.8659 -6.1932 -0 0 -0 -0 0 -0 -15.773 4.1214 -9.1151 -91.669 -50.243 -69.96 -0 0 -0 6.1953 -3.3243 4.8369 6.1953 -3.3243 4.8369 -0.43752 -1.0743 -21.716 -1.1089 -8.6652 14.728 3.7038 34.337 0.11885 -0 0 -0 -0 0 -0 -0 0 -0 -0.43752 -1.0743 -21.716 3.695 -38.11 7.3411 -4.9311 46.939 -2.4094 -0 0 -0 -0 0 -0 -0 0 -0 
0 0.95703 0 -0 0 -0 -1.0021 -0.90034 -22.077 -0.45321 4.1786 -5.8386 -0.45321 4.1786 -5.8386 -0.40929 3.5072 -4.9051 -0 0 -0 33.492 -32.899 8.8752 -8.2115 -6.434 -6.3221 -0 0 -0 -0 0 -0 -14.479 5.4786 -8.3462 -84.388 -50.48 -63.493 -0 0 -0 5.8942 -3.038 7.3186 5.8942 -3.038 7.3186 -1.0021 -0.90034 -22.077 -0.92842 -8.7109 15.97 4.2141 33.574 -0.50747 -0 0 -0 -0 0 -0 -0 0 -0 -1.0021 -0.90034 -22.077 6.0811 -40.046 10.458 -3.3218 41.116 -4.8156 -0 0 -0 -0 0 -0 -0 0 -0 
0 0.95703 0 -0 0 -0 -1.5066 -1.0526 -22.685 -0.3344 4.3765 -7.4878 -0.3344 4.3765 -7.4878 -0.31937 3.6739 -6.2893 -0 0 -0 30.854 -33.875 9.1114 -6.7508 -8.7216 -6.6248 -0 0 -0 -0 0 -0 -13.813 6.7294 -8.3798 -77.264 -49.436 -57.664 -0 0 -0 5.4262 -2.6662 10.015 5.4262 -2.6662 10.015 -1.5066 -1.0526 -22.685 -0.77076 -8.766 16.117 3.6437 33.396 0.91915 -0 0 -0 -0 0 -0 -0 0 -0 -1.5066 -1.0526 -22.685 8.7358 -41.83 15.122 -1.4757 35.203 -7.4708 -0 0 -0 -0 0 -0 -0 0 -0 
0 0.95703 0 -0 0 -0 -1.7941 -0.9943 -23.181 -0.23172 4.4087 -9.2865 -0.23172 4.4087 -9.2865 -0.24276 3.7017 -7.7992 -0 0 -0 28.383 -34.699 9.0735 -5.1038 -10.877 -6.5803 -0 0 -0 -0 0 -0 -13.762 7.8462 -9.0833 -71.083 -47.252 -53.01 -0 0 -0 4.838 -2.3074 12.853 4.838 -2.3074 12.853 -1.7941 -0.9943 -23.181 -0.69858 -9.0176 15.81 2.7892 33.309 2.7477 -0 0 -0 -0 0 -0 -0 0 -0 -1.7941 -0.9943 -23.181 11.387 -44.135 20.223 -0.17058 29.808 -9.4726 -0 0 -0 -0 0 -0 -0 0 -0 
0 0.95703 0 -0 0 -0 -2.1123 -0.63476 -23.617 -0.0022274 4.3778 -11.144 -0.0022276 4.3778 -11.144 -0.059236 3.6786 -9.3576 -0 0 -0 26.235 -35.612 8.1306 -3.1164 -13.126 -5.9072 -0 0 -0 -0 0 -0 -14.284 8.5688 -10.362 -66.565 -44.328 -50.026 -0 0 -0 4.126 -2.1774 15.733 4.126 -2.1774 15.733 -2.1123 -0.63476 -23.617 -0.63825 -9.1748 15.674 2.3798 32.813 3.6816 -0 0 -0 -0 0 -0 -0 0 -0 -2.1123 -0.63476 -23.617 14.412 -46.865 25.112 0.4355 25.01 -10.424 -0 0 -0 -0 0 -0 -0 0 -0 
0 0.95703 0 -0 0 -0 -2.5418 -0.247 -24.267 0.32023 4.4206 -12.891 0.32023 4.4206 -12.891 0.202 3.7198 -10.823 -0 0 -0 24.688 -36.723 6.2619 -0.78077 -15.368 -4.4919 -0 0 -0 -0 0 -0 -15.258 8.867 -12.071 -63.953 -41.315 -48.764 -0 0 -0 3.3192 -2.3539 18.537 3.3192 -2.3539 18.537 -2.5418 -0.247 -24.267 -0.49313 -8.9916 16.282 2.6159 31.854 3.0549 -0 0 -0 -0 0 -0 -0 0 -0 -2.5418 -0.247 -24.267 18.074 -49.413 29.67 0.51102 20.692 -10.38 -0 0 -0 -0 0 -0 -0 0 -0 
0 0.95703 0 -0 0 -0 -2.919 -0.1138 -25.314 0.56351 4.5681 -14.405 0.56351 4.5681 -14.405 0.39603 3.849 -12.093 -0 0 -0 23.891 -37.934 4.0207 1.5443 -17.276 -2.4701 -0 0 -0 -0 0 -0 -16.516 8.8556 -13.963 -62.899 -38.793 -48.696 -0 0 -0 2.4974 -2.7751 21.165 2.4974 -2.7751 21.165 -2.919 -0.1138 -25.314 -0.28135 -8.4886 17.75 3.2245 30.718 1.3559 -0 0 -0 -0 0 -0 -0 0 -0 -2.919 -0.1138 -25.314 22.19 -51.238 33.867 0.28068 16.836 -9.6351 -0 0 -0 -0 0 -0 -0 0 -0 
0 0.95703 0 -0 0 -0 -3.1593 -0.30979 -26.723 0.65739 4.7965 -15.645 0.65739 4.7965 -15.645 0.46405 4.0438 -13.133 -0 0 -0 23.592 -39.201 2.1092 3.4631 -18.629 -0.48426 -0 0 -0 -0 0 -0 -17.989 8.6529 -15.694 -62.957 -36.901 -49.393 -0 0 -0 1.6942 -3.3702 23.546 1.6942 -3.3702 23.546 -3.1593 -0.30979 -26.723 -0.24151 -7.6887 19.743 3.903 29.561 -0.29792 -0 0 -0 -0 0 -0 -0 0 -0 -3.1593 -0.30979 -26.723 26.42 -52.137 37.787 -0.03845 13.442 -8.6499 -0 0 -0 -0 0 -0 -0 0 -0 
0 0.95703 0 -0 0 -0 -3.2423 -0.68507 -28.326 0.64611 5.0731 -16.61 0.64612 5.0731 -16.61 0.4437 4.2773 -13.942 -0 0 -0 23.538 -40.607 0.77483 4.762 -19.4 0.79497 -0 0 -0 -0 0 -0 -19.567 8.3069 -17.1 -63.766 -35.342 -50.704 -0 0 -0 0.92133 -4.1376 25.611 0.92133 -4.1376 25.611 -3.2423 -0.68507 -28.326 -0.59402 -6.7353 21.927 4.6385 28.407 -1.2263 -0 0 -0 -0 0 -0 -0 0 -0 -3.2423 -0.68507 -28.326 30.493 -52.348 41.848 -0.26625 10.471 -7.9626 -0 0 -0 -0 0 -0 -0 0 -0 
0 0.95703 0 -0 0 -0 -3.171 -1.1262 -29.935 0.54417 5.3678 -17.319 0.54417 5.3678 -17.319 0.34775 4.5238 -14.537 -0 0 -0 23.737 -42.138 -0.30315 5.4143 -19.605 1.224 -0 0 -0 -0 0 -0 -21.072 7.9393 -18.167 -65.008 -33.711 -52.541 -0 0 -0 0.23349 -5.0217 27.306 0.23349 -5.0217 27.306 -3.171 -1.1262 -29.935 -1.2464 -5.8482 23.895 5.2146 27.453 -1.2892 -0 0 -0 -0 0 -0 -0 0 -0 -3.171 -1.1262 -29.935 34.173 -52.181 46.334 -0.3075 7.888 -7.9999 -0 0 -0 -0 0 -0 -0 0 -0 
0 0.95703 0 -0 0 -0 -3.0074 -1.7014 -31.433 0.30578 5.6868 -17.809 0.30578 5.6868 -17.809 0.1376 4.7874 -14.949 -0 0 -0 24.264 -43.684 -1.5535 5.5484 -19.309 1.064 -0 0 -0 -0 0 -0 -22.336 7.7013 -18.966 -66.392 -31.867 -54.715 -0 0 -0 -0.29269 -5.9084 28.647 -0.29269 -5.9084 28.647 -3.0074 -1.7014 -31.433 -1.8451 -5.0897 25.145 5.1315 26.986 -0.71502 -0 0 -0 -0 0 -0 -0 0 -0 -3.0074 -1.7014 -31.433 37.114 -51.696 50.824 -0.18584 5.6147 -8.7536 -0 0 -0 -0 0 -0 -0 0 -0 
0 0.95703 0 -0 0 -0 -2.854 -2.5254 -32.736 -0.090792 6.0921 -18.132 -0.090791 6.0921 -18.133 -0.20653 5.1201 -15.222 -0 0 -0 25.052 -45.19 -3.1401 5.4955 -18.727 0.53421 -0 0 -0 -0 0 -0 -23.22 7.5567 -19.738 -67.674 -30.048 -56.888 -0 0 -0 -0.60274 -6.7542 29.679 -0.60274 -6.7542 29.679 -2.854 -2.5254 -32.736 -2.2816 -4.2807 25.654 4.4898 26.803 -0.068358 -0 0 -0 -0 0 -0 -0 0 -0 -2.854 -2.5254 -32.736 38.948 -50.831 54.342 -0.014274 3.5463 -9.6462 -0 0 -0 -0 0 -0 -0 0 -0 
0 0.95703 0 -0 0 -0 -2.7956 -3.5242 -33.817 -0.58516 6.5822 -18.321 -0.58516 6.5822 -18.321 -0.6339 5.5216 -15.382 -0 0 -0 25.868 -46.594 -5.0039 5.5475 -18.058 -0.33634 -0 0 -0 -0 0 -0 -23.71 7.424 -20.71 -68.712 -28.579 -58.737 -0 0 -0 -0.71108 -7.5323 30.438 -0.71108 -7.5323 30.438 -2.7956 -3.5242 -33.817 -2.682 -3.3326 25.939 3.8929 26.529 0.19253 -0 0 -0 -0 0 -0 -0 0 -0 -2.7956 -3.5242 -33.817 39.681 -49.661 56.269 0.13559 1.6426 -9.9464 -0 0 -0 -0 0 -0 -0 0 -0 
0 0.95703 0 -0 0 -0 -2.8043 -4.4763 -34.767 -1.078 7.0601 -18.344 -1.078 7.0601 -18.344 -1.0584 5.9128 -15.404 -0 0 -0 26.432 -47.871 -7.1266 5.7077 -17.297 -1.4306 -0 0 -0 -0 0 -0 -23.904 7.3028 -21.901 -69.514 -27.431 -60.327 -0 0 -0 -0.7061 -8.209 30.925 -0.7061 -8.209 30.925 -2.8043 -4.4763 -34.767 -3.0884 -2.3499 26.507 3.6102 26.104 0.087075 -0 0 -0 -0 0 -0 -0 0 -0 -2.8043 -4.4763 -34.767 39.637 -48.337 56.756 0.28409 -0.071501 -9.3796 -0 0 -0 -0 0 -0 -0 0 -0 
0 0.95703 0 -0 0 -0 -2.7621 -5.2317 -35.617 -1.5086 7.4434 -18.188 -1.5086 7.4434 -18.188 -1.4271 6.226 -15.276 -0 0 -0 26.589 -49.077 -9.6015 5.8084 -16.359 -2.4436 -0 0 -0 -0 0 -0 -23.862 7.1868 -23.182 -70.084 -26.225 -62.194 -0 0 -0 -0.66776 -8.7907 31.135 -0.66776 -8.7907 31.135 -2.7621 -5.2317 -35.617 -3.5914 -1.5518 27.24 3.534 25.683 0.066932 -0 0 -0 -0 0 -0 -0 0 -0 -2.7621 -5.2317 -35.617 39.005 -46.991 56.229 0.46637 -1.5361 -8.2563 -0 0 -0 -0 0 -0 -0 0 -0 
0 0.95703 0 -0 0 -0 -2.5983 -5.7687 -36.279 -1.8503 7.7075 -17.901 -1.8503 7.7075 -17.901 -1.717 6.4413 -15.038 -0 0 -0 26.252 -50.207 -12.498 5.8352 -15.324 -3.1868 -0 0 -0 -0 0 -0 -23.622 7.0355 -24.471 -70.521 -24.561 -65.04 -0 0 -0 -0.65284 -9.3056 31.098 -0.65284 -9.3056 31.098 -2.5983 -5.7687 -36.279 -4.137 -1.0228 27.605 3.3103 25.397 0.49155 -0 0 -0 -0 0 -0 -0 0 -0 -2.5983 -5.7687 -36.279 37.812 -45.688 55.061 0.66197 -2.7041 -7.1057 -0 0 -0 -0 0 -0 -0 0 -0 
0 0.95703 0 -0 0 -0 -2.3903 -6.179 -36.745 -2.0808 7.875 -17.528 -2.0809 7.875 -17.528 -1.9106 6.5779 -14.726 -0 0 -0 25.409 -51.173 -15.599 5.9142 -14.341 -3.8447 -0 0 -0 -0 0 -0 -23.316 6.8153 -25.791 -71.069 -22.266 -68.999 -0 0 -0 -0.74118 -9.7515 30.87 -0.74119 -9.7515 30.87 -2.3903 -6.179 -36.745 -4.5713 -0.59831 27.388 2.8173 25.172 1.2024 -0 0 -0 -0 0 -0 -0 0 -0 -2.3903 -6.179 -36.745 36.102 -44.317 53.539 0.83633 -3.5624 -6.3342 -0 0 -0 -0 0 -0 -0 0 -0 
